<svg xmlns="http://www.w3.org/2000/svg" xmlns:xlink="http://www.w3.org/1999/xlink" contentStyleType="text/css" height="505px" preserveAspectRatio="none" style="width:770px;height:505px;background:#FFFFFF;" version="1.1" viewBox="0 0 770 505" width="770px" zoomAndPan="magnify"><defs/><g><!--cluster 9c153cfeee73499af061951b41e2fb5c--><g id="cluster_9c153cfeee73499af061951b41e2fb5c"><polygon fill="none" points="16,16,26,6,753,6,753,387.48,743,397.48,16,397.48,16,16" style="stroke:#181818;stroke-width:1.0;"/><line style="stroke:#181818;stroke-width:1.0;" x1="743" x2="753" y1="16" y2="6"/><line style="stroke:#181818;stroke-width:1.0;" x1="16" x2="743" y1="16" y2="16"/><line style="stroke:#181818;stroke-width:1.0;" x1="743" x2="743" y1="16" y2="397.48"/><text fill="#000000" font-family="sans-serif" font-size="14" font-weight="bold" lengthAdjust="spacing" textLength="68" x="346.5" y="31.9951">Koboldai</text></g><!--entity 7a08f518946942cea5fbb16630425e77--><g id="elem_7a08f518946942cea5fbb16630425e77"><rect fill="#F1F1F1" height="95.1875" rx="2.5" ry="2.5" style="stroke:#181818;stroke-width:0.5;" width="289" x="189.5" y="46"/><rect fill="#F1F1F1" height="10" style="stroke:#181818;stroke-width:0.5;" width="15" x="458.5" y="51"/><rect fill="#F1F1F1" height="2" style="stroke:#181818;stroke-width:0.5;" width="4" x="456.5" y="53"/><rect fill="#F1F1F1" height="2" style="stroke:#181818;stroke-width:0.5;" width="4" x="456.5" y="57"/><text fill="#000000" font-family="sans-serif" font-size="14" font-weight="bold" lengthAdjust="spacing" textLength="66" x="204.5" y="78.9951">koboldai</text><text fill="#000000" font-family="sans-serif" font-size="14" lengthAdjust="spacing" textLength="4" x="204.5" y="95.292">&#160;</text><text fill="#000000" font-family="sans-serif" font-size="14" lengthAdjust="spacing" textLength="249" x="204.5" y="111.5889">environment: DISPLAY=${DISPLAY}</text><text fill="#000000" font-family="sans-serif" font-size="14" lengthAdjust="spacing" textLength="4" x="204.5" y="127.8857">&#160;</text></g><!--entity c68253c6427616e6f42a9b6604acb89c--><g id="elem_c68253c6427616e6f42a9b6604acb89c"><rect fill="#F1F1F1" height="39.2969" rx="2.5" ry="2.5" style="stroke:#181818;stroke-width:0.5;" width="131" x="31.5" y="342.19"/><polygon fill="#F1F1F1" points="145.5,347.19,145.5,361.19,157.5,361.19,157.5,353.19,151.5,347.19,145.5,347.19" style="stroke:#181818;stroke-width:0.5;"/><line style="stroke:#181818;stroke-width:0.5;" x1="151.5" x2="151.5" y1="347.19" y2="353.19"/><line style="stroke:#181818;stroke-width:0.5;" x1="157.5" x2="151.5" y1="353.19" y2="353.19"/><text fill="#000000" font-family="sans-serif" font-size="14" lengthAdjust="spacing" textLength="101" x="41.5" y="368.1851">/tmp/.X11-unix</text></g><!--entity b7a558b41c5c37cac85fd6da7e12b5d1--><g id="elem_b7a558b41c5c37cac85fd6da7e12b5d1"><rect fill="#F1F1F1" height="39.2969" rx="2.5" ry="2.5" style="stroke:#181818;stroke-width:0.5;" width="127" x="197.5" y="342.19"/><polygon fill="#F1F1F1" points="307.5,347.19,307.5,361.19,319.5,361.19,319.5,353.19,313.5,347.19,307.5,347.19" style="stroke:#181818;stroke-width:0.5;"/><line style="stroke:#181818;stroke-width:0.5;" x1="313.5" x2="313.5" y1="347.19" y2="353.19"/><line style="stroke:#181818;stroke-width:0.5;" x1="319.5" x2="313.5" y1="353.19" y2="353.19"/><text fill="#000000" font-family="sans-serif" font-size="14" lengthAdjust="spacing" textLength="97" x="207.5" y="368.1851">/etc/protocols</text></g><!--entity ed45bdfbbb0f07d32bcce491850d583d--><g id="elem_ed45bdfbbb0f07d32bcce491850d583d"><rect fill="#F1F1F1" height="39.2969" rx="2.5" ry="2.5" style="stroke:#181818;stroke-width:0.5;" width="94" x="360" y="342.19"/><polygon fill="#F1F1F1" points="437,347.19,437,361.19,449,361.19,449,353.19,443,347.19,437,347.19" style="stroke:#181818;stroke-width:0.5;"/><line style="stroke:#181818;stroke-width:0.5;" x1="443" x2="443" y1="347.19" y2="353.19"/><line style="stroke:#181818;stroke-width:0.5;" x1="449" x2="443" y1="353.19" y2="353.19"/><text fill="#000000" font-family="sans-serif" font-size="14" lengthAdjust="spacing" textLength="64" x="370" y="368.1851">/content/</text></g><!--entity 6c036e87b79b5833e8b6f6c65e9cb06e--><g id="elem_6c036e87b79b5833e8b6f6c65e9cb06e"><rect fill="#F1F1F1" height="39.2969" rx="2.5" ry="2.5" style="stroke:#181818;stroke-width:0.5;" width="247" x="489.5" y="342.19"/><polygon fill="#F1F1F1" points="719.5,347.19,719.5,361.19,731.5,361.19,731.5,353.19,725.5,347.19,719.5,347.19" style="stroke:#181818;stroke-width:0.5;"/><line style="stroke:#181818;stroke-width:0.5;" x1="725.5" x2="725.5" y1="347.19" y2="353.19"/><line style="stroke:#181818;stroke-width:0.5;" x1="731.5" x2="725.5" y1="353.19" y2="353.19"/><text fill="#000000" font-family="sans-serif" font-size="14" lengthAdjust="spacing" textLength="217" x="499.5" y="368.1851">/home/micromamba/.Xauthority</text></g><!--entity a59a276035334c05e18ab8114f72a06e--><g id="elem_a59a276035334c05e18ab8114f72a06e"><rect fill="#F1F1F1" height="39.2969" rx="2.5" ry="2.5" style="stroke:#181818;stroke-width:0.5;" width="131" x="31.5" y="460.48"/><polygon fill="#F1F1F1" points="145.5,465.48,145.5,479.48,157.5,479.48,157.5,471.48,151.5,465.48,145.5,465.48" style="stroke:#181818;stroke-width:0.5;"/><line style="stroke:#181818;stroke-width:0.5;" x1="151.5" x2="151.5" y1="465.48" y2="471.48"/><line style="stroke:#181818;stroke-width:0.5;" x1="157.5" x2="151.5" y1="471.48" y2="471.48"/><text fill="#000000" font-family="sans-serif" font-size="14" lengthAdjust="spacing" textLength="101" x="41.5" y="486.4751">/tmp/.X11-unix</text></g><!--entity 6e3309f5f51539587c0774d35ab9fbb0--><g id="elem_6e3309f5f51539587c0774d35ab9fbb0"><rect fill="#F1F1F1" height="39.2969" rx="2.5" ry="2.5" style="stroke:#181818;stroke-width:0.5;" width="127" x="197.5" y="460.48"/><polygon fill="#F1F1F1" points="307.5,465.48,307.5,479.48,319.5,479.48,319.5,471.48,313.5,465.48,307.5,465.48" style="stroke:#181818;stroke-width:0.5;"/><line style="stroke:#181818;stroke-width:0.5;" x1="313.5" x2="313.5" y1="465.48" y2="471.48"/><line style="stroke:#181818;stroke-width:0.5;" x1="319.5" x2="313.5" y1="471.48" y2="471.48"/><text fill="#000000" font-family="sans-serif" font-size="14" lengthAdjust="spacing" textLength="97" x="207.5" y="486.4751">/etc/protocols</text></g><!--entity 800b5175f0832a0e721e0b062e7ed111--><g id="elem_800b5175f0832a0e721e0b062e7ed111"><rect fill="#F1F1F1" height="39.2969" rx="2.5" ry="2.5" style="stroke:#181818;stroke-width:0.5;" width="43" x="385.5" y="460.48"/><polygon fill="#F1F1F1" points="411.5,465.48,411.5,479.48,423.5,479.48,423.5,471.48,417.5,465.48,411.5,465.48" style="stroke:#181818;stroke-width:0.5;"/><line style="stroke:#181818;stroke-width:0.5;" x1="417.5" x2="417.5" y1="465.48" y2="471.48"/><line style="stroke:#181818;stroke-width:0.5;" x1="423.5" x2="417.5" y1="471.48" y2="471.48"/><text fill="#000000" font-family="sans-serif" font-size="14" lengthAdjust="spacing" textLength="13" x="395.5" y="486.4751">../</text></g><!--entity e3cb4270705d65c605a63928ecbc8374--><g id="elem_e3cb4270705d65c605a63928ecbc8374"><rect fill="#F1F1F1" height="39.2969" rx="2.5" ry="2.5" style="stroke:#181818;stroke-width:0.5;" width="159" x="533.5" y="460.48"/><polygon fill="#F1F1F1" points="675.5,465.48,675.5,479.48,687.5,479.48,687.5,471.48,681.5,465.48,675.5,465.48" style="stroke:#181818;stroke-width:0.5;"/><line style="stroke:#181818;stroke-width:0.5;" x1="681.5" x2="681.5" y1="465.48" y2="471.48"/><line style="stroke:#181818;stroke-width:0.5;" x1="687.5" x2="681.5" y1="471.48" y2="471.48"/><text fill="#000000" font-family="sans-serif" font-size="14" lengthAdjust="spacing" textLength="129" x="543.5" y="486.4751">$HOME/.Xauthority</text></g><!--link c68253c6427616e6f42a9b6604acb89c to a59a276035334c05e18ab8114f72a06e--><g id="link_c68253c6427616e6f42a9b6604acb89c_a59a276035334c05e18ab8114f72a06e"><path codeLine="18" d="M97,381.78 C97,403.4 97,438.57 97,460.2 " fill="none" id="c68253c6427616e6f42a9b6604acb89c-a59a276035334c05e18ab8114f72a06e" style="stroke:#181818;stroke-width:1.0;"/><text fill="#000000" font-family="sans-serif" font-size="13" lengthAdjust="spacing" textLength="14" x="98" y="426.5469">rw</text></g><!--link 7a08f518946942cea5fbb16630425e77 to c68253c6427616e6f42a9b6604acb89c--><g id="link_7a08f518946942cea5fbb16630425e77_c68253c6427616e6f42a9b6604acb89c"><path codeLine="19" d="M292.17,141.58 C239.29,200.99 154.6797,296.0387 117.8397,337.4187 " fill="none" id="7a08f518946942cea5fbb16630425e77-to-c68253c6427616e6f42a9b6604acb89c" style="stroke:#181818;stroke-width:1.0;stroke-dasharray:7.0,7.0;"/><polygon fill="#181818" points="113.85,341.9,122.8221,337.8378,117.1747,338.1655,116.847,332.5182,113.85,341.9" style="stroke:#181818;stroke-width:1.0;"/><text fill="#000000" font-family="sans-serif" font-size="13" lengthAdjust="spacing" textLength="23" x="211" y="246.2569">use</text></g><!--link b7a558b41c5c37cac85fd6da7e12b5d1 to 6e3309f5f51539587c0774d35ab9fbb0--><g id="link_b7a558b41c5c37cac85fd6da7e12b5d1_6e3309f5f51539587c0774d35ab9fbb0"><path codeLine="20" d="M261,381.78 C261,403.4 261,438.57 261,460.2 " fill="none" id="b7a558b41c5c37cac85fd6da7e12b5d1-6e3309f5f51539587c0774d35ab9fbb0" style="stroke:#181818;stroke-width:1.0;"/><text fill="#000000" font-family="sans-serif" font-size="13" lengthAdjust="spacing" textLength="13" x="262" y="426.5469">ro</text></g><!--link 7a08f518946942cea5fbb16630425e77 to b7a558b41c5c37cac85fd6da7e12b5d1--><g id="link_7a08f518946942cea5fbb16630425e77_b7a558b41c5c37cac85fd6da7e12b5d1"><path codeLine="21" d="M321.12,141.58 C304.83,200.99 279.1271,294.7337 267.7771,336.1137 " fill="none" id="7a08f518946942cea5fbb16630425e77-to-b7a558b41c5c37cac85fd6da7e12b5d1" style="stroke:#181818;stroke-width:1.0;stroke-dasharray:7.0,7.0;"/><polygon fill="#181818" points="266.19,341.9,272.4282,334.2786,267.5126,337.0781,264.7131,332.1625,266.19,341.9" style="stroke:#181818;stroke-width:1.0;"/><text fill="#000000" font-family="sans-serif" font-size="13" lengthAdjust="spacing" textLength="23" x="296" y="246.2569">use</text></g><!--link ed45bdfbbb0f07d32bcce491850d583d to 800b5175f0832a0e721e0b062e7ed111--><g id="link_ed45bdfbbb0f07d32bcce491850d583d_800b5175f0832a0e721e0b062e7ed111"><path codeLine="22" d="M407,381.78 C407,403.4 407,438.57 407,460.2 " fill="none" id="ed45bdfbbb0f07d32bcce491850d583d-800b5175f0832a0e721e0b062e7ed111" style="stroke:#181818;stroke-width:1.0;"/><text fill="#000000" font-family="sans-serif" font-size="13" lengthAdjust="spacing" textLength="14" x="408" y="426.5469">rw</text></g><!--link 7a08f518946942cea5fbb16630425e77 to ed45bdfbbb0f07d32bcce491850d583d--><g id="link_7a08f518946942cea5fbb16630425e77_ed45bdfbbb0f07d32bcce491850d583d"><path codeLine="23" d="M346.88,141.58 C363.17,200.99 388.8729,294.7337 400.2229,336.1137 " fill="none" id="7a08f518946942cea5fbb16630425e77-to-ed45bdfbbb0f07d32bcce491850d583d" style="stroke:#181818;stroke-width:1.0;stroke-dasharray:7.0,7.0;"/><polygon fill="#181818" points="401.81,341.9,403.2869,332.1625,400.4874,337.0781,395.5718,334.2786,401.81,341.9" style="stroke:#181818;stroke-width:1.0;"/><text fill="#000000" font-family="sans-serif" font-size="13" lengthAdjust="spacing" textLength="23" x="377" y="246.2569">use</text></g><!--link 6c036e87b79b5833e8b6f6c65e9cb06e to e3cb4270705d65c605a63928ecbc8374--><g id="link_6c036e87b79b5833e8b6f6c65e9cb06e_e3cb4270705d65c605a63928ecbc8374"><path codeLine="24" d="M613,381.78 C613,403.4 613,438.57 613,460.2 " fill="none" id="6c036e87b79b5833e8b6f6c65e9cb06e-e3cb4270705d65c605a63928ecbc8374" style="stroke:#181818;stroke-width:1.0;"/><text fill="#000000" font-family="sans-serif" font-size="13" lengthAdjust="spacing" textLength="14" x="614" y="426.5469">rw</text></g><!--link 7a08f518946942cea5fbb16630425e77 to 6c036e87b79b5833e8b6f6c65e9cb06e--><g id="link_7a08f518946942cea5fbb16630425e77_6c036e87b79b5833e8b6f6c65e9cb06e"><path codeLine="25" d="M383.24,141.58 C445.5,200.99 545.4594,296.3776 588.8194,337.7576 " fill="none" id="7a08f518946942cea5fbb16630425e77-to-6c036e87b79b5833e8b6f6c65e9cb06e" style="stroke:#181818;stroke-width:1.0;stroke-dasharray:7.0,7.0;"/><polygon fill="#181818" points="593.16,341.9,589.4107,332.7927,589.5428,338.448,583.8875,338.5802,593.16,341.9" style="stroke:#181818;stroke-width:1.0;"/><text fill="#000000" font-family="sans-serif" font-size="13" lengthAdjust="spacing" textLength="23" x="497" y="246.2569">use</text></g><!--SRC=[bP9FYnGn4CNl_Id2iAU1wKawgVnPK10K51M5lIZY8QbKtCRfpj3Juwui-ztDjhCm86pSMrrUrU-zUdwtopT3VzkFFvenHsAhzpdaNVJzYla3SoX0OY8Y8vLpFd4j78YW17Kf0BAxXc4UzdcaSMR6Svj0MAUqKnsIXnI2q5forG4Pmxurw_NFq_xrkcbe_DLFUHoA-9AzVdVr-SEhhoykxaxJVTDyR_mqzydZp5RRUTXlsoz2R8vZVxlWeRPTuTEgCrfeqabrtWMjkV8OhCDpDSsutKzvpfXtXqKTZ0UmnGi2IeCUBQIeepSakW1HdAinZtEXt2v2YWf2BDu2Jzn4sGL4KavOu16iZEV2wppGTkXnoeCVWYy6_76-pbC__rvsQUHIapN1k52qacpGIQC6SXYufkR-wGWyE5_SSmbIAkH0mlfWXL39TFv1_sG4cgJaBa7v6aW7rY0tHaK9FhZYZv-fs_QlUSjv064WSIlB1JAT85v8Ep8KXJXFxUBjfuzl_d5C4aDv63SSeWRK7BoMhhE40QqqggbzbMtYfkgRNRBLTBDggfriszYsBwjLUjXtFD2ggRLceQlbkj3b_wUh7dsagrLpeQkzyBdPLOy-qjNAlj3L-l5SkkhH4zqV]--></g></svg>